<?xml version="1.0" encoding="utf-8"?>
<!-- Generator: Adobe Illustrator 24.1.1, SVG Export Plug-In . SVG Version: 6.00 Build 0)  -->
<svg version="1.1" id="Calque_1" xmlns="http://www.w3.org/2000/svg" xmlns:xlink="http://www.w3.org/1999/xlink" x="0px" y="0px"
	 viewBox="0 0 377.83 500" style="enable-background:new 0 0 377.83 500;" xml:space="preserve">
<style type="text/css">
	.st0{fill:#FFFBFB;}
	.st1{fill:url(#SVGID_1_);}
	.st2{fill:url(#SVGID_2_);}
	.st3{fill:url(#SVGID_3_);}
	.st4{fill:url(#SVGID_4_);}
	.st5{fill:url(#SVGID_5_);}
	.st6{fill:url(#SVGID_6_);}
	.st7{fill:url(#SVGID_7_);}
	.st8{fill:url(#SVGID_8_);}
	.st9{fill:none;stroke:#1D001C;stroke-miterlimit:10;}
	.st10{fill:none;stroke:#001344;stroke-miterlimit:10;}
	.st11{fill:#FFFFFF;}
	.st12{fill:url(#SVGID_9_);}
	.st13{fill:url(#SVGID_10_);}
	.st14{fill:url(#SVGID_11_);}
	.st15{fill:url(#SVGID_12_);}
	.st16{fill:url(#SVGID_13_);}
	.st17{fill:url(#SVGID_14_);}
	.st18{fill:url(#SVGID_15_);}
	.st19{fill:url(#SVGID_16_);}
	.st20{fill:url(#SVGID_17_);}
	.st21{fill:url(#SVGID_18_);}
	.st22{fill:url(#SVGID_19_);}
	.st23{fill:url(#SVGID_20_);}
	.st24{fill:url(#SVGID_21_);}
	.st25{fill:url(#SVGID_22_);}
	.st26{fill:url(#SVGID_23_);}
	.st27{fill:url(#SVGID_24_);}
	.st28{fill:url(#SVGID_25_);}
	.st29{fill:url(#SVGID_26_);}
	.st30{fill:url(#SVGID_27_);}
	.st31{fill:url(#SVGID_28_);}
	.st32{fill:url(#SVGID_29_);}
	.st33{fill:url(#SVGID_30_);}
	.st34{fill:url(#SVGID_31_);}
	.st35{fill:url(#SVGID_32_);}
	.st36{fill:url(#SVGID_33_);}
	.st37{fill:url(#SVGID_34_);}
	.st38{fill:url(#SVGID_35_);}
	.st39{fill:url(#SVGID_36_);}
	.st40{fill:url(#SVGID_37_);}
	.st41{fill:url(#SVGID_38_);}
	.st42{fill:url(#SVGID_39_);}
	.st43{fill:url(#SVGID_40_);}
	.st44{fill:url(#SVGID_41_);}
	.st45{fill:url(#SVGID_42_);}
	.st46{fill:url(#SVGID_43_);}
	.st47{fill:url(#SVGID_44_);}
	.st48{fill:url(#SVGID_45_);}
	.st49{fill:url(#SVGID_46_);}
	.st50{fill:url(#SVGID_47_);}
	.st51{fill:url(#SVGID_48_);}
	.st52{fill:url(#SVGID_49_);}
	.st53{fill:url(#SVGID_50_);}
	.st54{fill:url(#SVGID_51_);}
	.st55{fill:url(#SVGID_52_);}
	.st56{fill:url(#SVGID_53_);}
	.st57{fill:url(#SVGID_54_);}
	.st58{fill:url(#SVGID_55_);}
	.st59{fill:url(#SVGID_56_);}
	.st60{fill:url(#SVGID_57_);}
	.st61{fill:url(#SVGID_58_);}
	.st62{fill:url(#SVGID_59_);}
	.st63{fill:url(#SVGID_60_);}
	.st64{fill:url(#SVGID_61_);}
	.st65{fill:url(#SVGID_62_);}
	.st66{fill:url(#SVGID_63_);}
	.st67{fill:url(#SVGID_64_);}
</style>
<g>
	<linearGradient id="SVGID_1_" gradientUnits="userSpaceOnUse" x1="-25.8033" y1="77.8155" x2="410.1762" y2="384.671">
		<stop  offset="0" style="stop-color:#FF0000"/>
		<stop  offset="1" style="stop-color:#FBBD00"/>
	</linearGradient>
	<path class="st1" d="M377.83,188.91C377.83,293.25,188.91,500,188.91,500S0,293.25,0,188.91S84.58,0,188.91,0
		S377.83,84.58,377.83,188.91z"/>
	<path class="st11" d="M259.74,295.4V101.66h-25.47V64.42h-86.85v37.23h-25.45V295.4h-7v8.9h151.75v-8.9H259.74z M167.77,82.24
		h18.47v21.31h-18.47V82.24z M167.77,114.37h18.47v21.31h-18.47V114.37z M167.77,146.52h18.47v21.31h-18.47V146.52z M167.77,178.64
		h18.47v21.31h-18.47V178.64z M157.61,232.1h-18.47v-21.33h18.47V232.1z M157.61,199.95h-18.47v-21.31h18.47V199.95z M157.61,167.82
		h-18.47v-21.31h18.47V167.82z M157.61,135.68h-18.47v-21.31h18.47V135.68z M167.77,210.77h18.47v21.33h-18.47V210.77z
		 M208.5,293.81H177v-34.99h31.5V293.81z M214.55,232.1h-18.47v-21.33h18.47V232.1z M214.55,199.95h-18.47v-21.31h18.47V199.95z
		 M214.55,167.82h-18.47v-21.31h18.47V167.82z M214.55,135.68h-18.47v-21.31h18.47V135.68z M214.55,103.55h-18.47V82.24h18.47
		V103.55z M242.86,232.1h-18.44v-21.33h18.44V232.1z M242.86,199.95h-18.44v-21.31h18.44V199.95z M242.86,167.82h-18.44v-21.31
		h18.44V167.82z M242.86,135.68h-18.44v-21.31h18.44V135.68z"/>
</g>
</svg>
