<?xml version="1.0" encoding="utf-8"?>
<!-- Generator: Adobe Illustrator 24.1.1, SVG Export Plug-In . SVG Version: 6.00 Build 0)  -->
<svg version="1.1" id="Calque_1" xmlns="http://www.w3.org/2000/svg" xmlns:xlink="http://www.w3.org/1999/xlink" x="0px" y="0px"
	 viewBox="0 0 377.83 500" style="enable-background:new 0 0 377.83 500;" xml:space="preserve">
<style type="text/css">
	.st0{fill:#FFFBFB;}
	.st1{fill:url(#SVGID_1_);}
	.st2{fill:url(#SVGID_2_);}
	.st3{fill:url(#SVGID_3_);}
	.st4{fill:url(#SVGID_4_);}
	.st5{fill:url(#SVGID_5_);}
	.st6{fill:url(#SVGID_6_);}
	.st7{fill:url(#SVGID_7_);}
	.st8{fill:url(#SVGID_8_);}
	.st9{fill:none;stroke:#1D001C;stroke-miterlimit:10;}
	.st10{fill:none;stroke:#001344;stroke-miterlimit:10;}
	.st11{fill:#FFFFFF;}
	.st12{fill:url(#SVGID_9_);}
	.st13{fill:url(#SVGID_10_);}
	.st14{fill:url(#SVGID_11_);}
	.st15{fill:url(#SVGID_12_);}
	.st16{fill:url(#SVGID_13_);}
	.st17{fill:url(#SVGID_14_);}
	.st18{fill:url(#SVGID_15_);}
	.st19{fill:url(#SVGID_16_);}
	.st20{fill:url(#SVGID_17_);}
	.st21{fill:url(#SVGID_18_);}
	.st22{fill:url(#SVGID_19_);}
	.st23{fill:url(#SVGID_20_);}
	.st24{fill:url(#SVGID_21_);}
	.st25{fill:url(#SVGID_22_);}
	.st26{fill:url(#SVGID_23_);}
	.st27{fill:url(#SVGID_24_);}
	.st28{fill:url(#SVGID_25_);}
	.st29{fill:url(#SVGID_26_);}
	.st30{fill:url(#SVGID_27_);}
	.st31{fill:url(#SVGID_28_);}
	.st32{fill:url(#SVGID_29_);}
	.st33{fill:url(#SVGID_30_);}
	.st34{fill:url(#SVGID_31_);}
	.st35{fill:url(#SVGID_32_);}
	.st36{fill:url(#SVGID_33_);}
	.st37{fill:url(#SVGID_34_);}
	.st38{fill:url(#SVGID_35_);}
	.st39{fill:url(#SVGID_36_);}
	.st40{fill:url(#SVGID_37_);}
	.st41{fill:url(#SVGID_38_);}
	.st42{fill:url(#SVGID_39_);}
	.st43{fill:url(#SVGID_40_);}
	.st44{fill:url(#SVGID_41_);}
	.st45{fill:url(#SVGID_42_);}
	.st46{fill:url(#SVGID_43_);}
	.st47{fill:url(#SVGID_44_);}
	.st48{fill:url(#SVGID_45_);}
	.st49{fill:url(#SVGID_46_);}
	.st50{fill:url(#SVGID_47_);}
	.st51{fill:url(#SVGID_48_);}
	.st52{fill:url(#SVGID_49_);}
	.st53{fill:url(#SVGID_50_);}
	.st54{fill:url(#SVGID_51_);}
	.st55{fill:url(#SVGID_52_);}
	.st56{fill:url(#SVGID_53_);}
	.st57{fill:url(#SVGID_54_);}
	.st58{fill:url(#SVGID_55_);}
	.st59{fill:url(#SVGID_56_);}
	.st60{fill:url(#SVGID_57_);}
	.st61{fill:url(#SVGID_58_);}
	.st62{fill:url(#SVGID_59_);}
	.st63{fill:url(#SVGID_60_);}
	.st64{fill:url(#SVGID_61_);}
	.st65{fill:url(#SVGID_62_);}
	.st66{fill:url(#SVGID_63_);}
	.st67{fill:url(#SVGID_64_);}
</style>
<g>
	<linearGradient id="SVGID_1_" gradientUnits="userSpaceOnUse" x1="-25.8033" y1="77.8155" x2="410.1762" y2="384.671">
		<stop  offset="0" style="stop-color:#0068F5"/>
		<stop  offset="1" style="stop-color:#00D1F4"/>
	</linearGradient>
	<path class="st1" d="M377.83,188.91C377.83,293.25,188.91,500,188.91,500S0,293.25,0,188.91S84.58,0,188.91,0
		S377.83,84.58,377.83,188.91z"/>
	<g>
		<path class="st11" d="M94.64,171.66v30.38c2.85,0.74,4.96,3.32,4.96,6.4c0,3.11-2.15,5.72-5.04,6.43c3.24,3.6,3.66,7.61,3.66,7.61
			l3.03,43.03c0,0-4.83-3.58-8.26-3.58c-3.45,0-8.28,3.58-8.28,3.58s3.03-37.22,3.58-43.03c0.34-3.5,1.99-6.07,3.27-7.56
			c-2.98-0.66-5.2-3.3-5.2-6.48c0-3.13,2.17-5.75,5.1-6.43v-31.55L69,161.99l119.91-45.51l119.91,45.51l-119.91,45.18L94.64,171.66z
			"/>
		<path class="st11" d="M258.93,189.07v46.29c-0.26,0.18-0.5,0.34-0.76,0.52c-18.41,12.52-42.74,20.13-69.4,20.13
			c-26.66,0-50.97-7.61-69.38-20.13c-0.26-0.18-0.5-0.34-0.76-0.52v-46.38l70.29,26.48L258.93,189.07z"/>
	</g>
</g>
</svg>
