<?xml version="1.0" encoding="utf-8"?>
<!-- Generator: Adobe Illustrator 24.1.1, SVG Export Plug-In . SVG Version: 6.00 Build 0)  -->
<svg version="1.1" id="Calque_1" xmlns="http://www.w3.org/2000/svg" xmlns:xlink="http://www.w3.org/1999/xlink" x="0px" y="0px"
	 viewBox="0 0 377.83 500" style="enable-background:new 0 0 377.83 500;" xml:space="preserve">
<style type="text/css">
	.st0{fill:#FFFBFB;}
	.st1{fill:url(#SVGID_1_);}
	.st2{fill:url(#SVGID_2_);}
	.st3{fill:url(#SVGID_3_);}
	.st4{fill:url(#SVGID_4_);}
	.st5{fill:url(#SVGID_5_);}
	.st6{fill:url(#SVGID_6_);}
	.st7{fill:url(#SVGID_7_);}
	.st8{fill:url(#SVGID_8_);}
	.st9{fill:none;stroke:#1D001C;stroke-miterlimit:10;}
	.st10{fill:none;stroke:#001344;stroke-miterlimit:10;}
	.st11{fill:#FFFFFF;}
	.st12{fill:url(#SVGID_9_);}
	.st13{fill:url(#SVGID_10_);}
	.st14{fill:url(#SVGID_11_);}
	.st15{fill:url(#SVGID_12_);}
	.st16{fill:url(#SVGID_13_);}
	.st17{fill:url(#SVGID_14_);}
	.st18{fill:url(#SVGID_15_);}
	.st19{fill:url(#SVGID_16_);}
	.st20{fill:url(#SVGID_17_);}
	.st21{fill:url(#SVGID_18_);}
	.st22{fill:url(#SVGID_19_);}
	.st23{fill:url(#SVGID_20_);}
	.st24{fill:url(#SVGID_21_);}
	.st25{fill:url(#SVGID_22_);}
	.st26{fill:url(#SVGID_23_);}
	.st27{fill:url(#SVGID_24_);}
	.st28{fill:url(#SVGID_25_);}
	.st29{fill:url(#SVGID_26_);}
	.st30{fill:url(#SVGID_27_);}
	.st31{fill:url(#SVGID_28_);}
	.st32{fill:url(#SVGID_29_);}
	.st33{fill:url(#SVGID_30_);}
	.st34{fill:url(#SVGID_31_);}
	.st35{fill:url(#SVGID_32_);}
	.st36{fill:url(#SVGID_33_);}
	.st37{fill:url(#SVGID_34_);}
	.st38{fill:url(#SVGID_35_);}
	.st39{fill:url(#SVGID_36_);}
	.st40{fill:url(#SVGID_37_);}
	.st41{fill:url(#SVGID_38_);}
	.st42{fill:url(#SVGID_39_);}
	.st43{fill:url(#SVGID_40_);}
	.st44{fill:url(#SVGID_41_);}
	.st45{fill:url(#SVGID_42_);}
	.st46{fill:url(#SVGID_43_);}
	.st47{fill:url(#SVGID_44_);}
	.st48{fill:url(#SVGID_45_);}
	.st49{fill:url(#SVGID_46_);}
	.st50{fill:url(#SVGID_47_);}
	.st51{fill:url(#SVGID_48_);}
	.st52{fill:url(#SVGID_49_);}
	.st53{fill:url(#SVGID_50_);}
	.st54{fill:url(#SVGID_51_);}
	.st55{fill:url(#SVGID_52_);}
	.st56{fill:url(#SVGID_53_);}
	.st57{fill:url(#SVGID_54_);}
	.st58{fill:url(#SVGID_55_);}
	.st59{fill:url(#SVGID_56_);}
	.st60{fill:url(#SVGID_57_);}
	.st61{fill:url(#SVGID_58_);}
	.st62{fill:url(#SVGID_59_);}
	.st63{fill:url(#SVGID_60_);}
	.st64{fill:url(#SVGID_61_);}
	.st65{fill:url(#SVGID_62_);}
	.st66{fill:url(#SVGID_63_);}
	.st67{fill:url(#SVGID_64_);}
</style>
<g>
	<linearGradient id="SVGID_1_" gradientUnits="userSpaceOnUse" x1="-25.8033" y1="77.8155" x2="410.1762" y2="384.671">
		<stop  offset="0" style="stop-color:#0BCB00"/>
		<stop  offset="1" style="stop-color:#00E4F5"/>
	</linearGradient>
	<path class="st1" d="M377.83,188.91C377.83,293.25,188.91,500,188.91,500S0,293.25,0,188.91S84.58,0,188.91,0
		S377.83,84.58,377.83,188.91z"/>
	<g>
		<path class="st11" d="M175.72,205.6l-21.18-13.55c-0.91-0.58-1.17-1.79-0.59-2.69l8.8-13.75l24.46,15.65l-8.8,13.75
			C177.83,205.92,176.62,206.18,175.72,205.6z"/>
		<path class="st11" d="M238,62.06l21.18,13.55c0.91,0.58,1.17,1.79,0.59,2.69l-17.65,27.59l-24.46-15.65l17.65-27.59
			C235.89,61.74,237.09,61.48,238,62.06z"/>
		<path class="st11" d="M238.37,120.26l-6.88,10.76c-3.51-2.15-7.62-3.37-12.03-3.37c-12.82,0-23.21,10.37-23.21,23.19
			c0,8.01,4.06,15.08,10.25,19.24l-9.38,14.67c-1.57,2.47-4.87,3.19-7.34,1.62l-23.53-15.06c-2.47-1.59-3.19-4.87-1.62-7.34
			l41.25-64.48c1.59-2.47,4.87-3.19,7.34-1.62l23.53,15.06C239.22,114.49,239.96,117.79,238.37,120.26z"/>
		<path class="st11" d="M270.73,194.62c-5.75-30.79-28.25-46.42-32.22-48.96c-2.26-8.38-9.95-14.55-19.03-14.55
			c-10.9,0-19.72,8.82-19.72,19.72c0,10.88,8.82,19.72,19.72,19.72c1.71,0,3.35-0.21,4.92-0.62c18.43,14.55,24.71,40.44,16.84,59.5
			c-7.85,19.05-26.14,32.82-48.48,32.82c-20.67,0-29.89-10.74-31.16-12.38h8.48c2.12,0,4.04-0.85,5.43-2.24
			c1.39-1.39,2.24-3.33,2.24-5.43c0-4.25-3.42-7.67-7.67-7.67h-57c-2.1,0-4.04,0.85-5.43,2.24c-1.39,1.39-2.24,3.3-2.24,5.43
			c0,4.23,3.44,7.67,7.67,7.67h10.53c10.62,19.49,25.84,26.93,25.84,26.93c-12.38,5.29-24.18,15.52-24.18,15.52v11.99h135.62v-11.99
			c-8.06-7.28-23.19-15.13-23.19-15.13C265.63,254.76,277.02,228.43,270.73,194.62z M210.01,150.83c0-5.24,4.23-9.47,9.47-9.47
			c5.22,0,9.47,4.23,9.47,9.47c0,5.22-4.25,9.47-9.47,9.47C214.24,160.29,210.01,156.05,210.01,150.83z"/>
	</g>
</g>
</svg>
