<?xml version="1.0" encoding="utf-8"?><svg version="1.1" xmlns="http://www.w3.org/2000/svg" xmlns:xlink="http://www.w3.org/1999/xlink" x="0px" y="0px"
viewBox="0 0 462.2 111.2" style="enable-background:new 0 0 462.2 111.2;" xml:space="preserve"><style type="text/css">.st0-logc{fill:#007E42}.st1-logc{fill:none}.st2-logc{fill:#50B652}.st3-logc{fill:#FFF}.st4-logc{fill:#0094AF}</style><g> <path d="M462.2,98.7c0-3.5-4.7-2.7-4.7-4.7c0-0.8,0.6-1.3,1.9-1.3c0.7,0,1.4,0.1,2,0.3l0.1-1.9c-0.7-0.1-1.4-0.2-2-0.2
c-2.7,0-4.2,1.4-4.2,3.3c0,3.6,4.6,2.7,4.6,4.8c0,1-0.8,1.5-1.9,1.5c-0.8,0-1.7-0.2-2.3-0.4l-0.1,2c0.7,0.2,1.5,0.3,2.3,0.3
C460.6,102.3,462.2,100.8,462.2,98.7 M453.7,102.1v-1.8h-3.9v-3h3.7v-1.7h-3.7v-2.7h3.9V91h-6v11.1H453.7z M446.4,102.1v-1.9h-3.6
V91h-2.1v11.1H446.4z M436.4,98.8c0,1-0.7,1.7-2.1,1.7c-0.5,0-0.9,0-1.2-0.1v-3.1c0.2,0,0.8,0,0.9,0
C435.4,97.2,436.4,97.7,436.4,98.8 M436.2,94.1c0,1-0.8,1.6-2.2,1.6c-0.3,0-0.6,0-0.9,0v-2.9c0.4,0,0.8,0,1.2,0
C435.7,92.7,436.2,93.2,436.2,94.1 M438.7,98.7c0-1.1-0.7-2.2-2-2.5v0c1.1-0.4,1.8-1.4,1.8-2.5c0-1.8-1.3-2.7-3.7-2.7
c-1.4,0-2.8,0-3.7,0.1v11.1c1.4,0,2.6,0,3.2,0C437.6,102.2,438.7,100.3,438.7,98.7 M426.1,98.2H423l1-2.8c0.2-0.6,0.4-1.3,0.5-1.9
h0c0.1,0.6,0.3,1.2,0.5,1.8L426.1,98.2z M429.8,102.1l-4-11.1h-2.4l-3.9,11.1h2.2l0.8-2.3h4.2l0.8,2.3H429.8z M416.3,94.3
c0,1-0.8,1.7-2.1,1.7c-0.3,0-0.6,0-0.8,0v-3.2c0.2,0,0.5,0,0.8,0C415.6,92.7,416.3,93.2,416.3,94.3 M419.3,102.1l-2.7-3.7
c-0.3-0.4-0.6-0.8-0.9-1.2c1.7-0.3,2.8-1.4,2.8-3.1c0-2.3-1.6-3.1-4-3.1c-1.3,0-2.3,0-3.2,0.1v11.1h2.1v-4.6h0.1l3.1,4.6H419.3z
M408.8,97.8V91h-2.1V98c0,1.9-0.7,2.6-2.3,2.6c-1.8,0-2.3-1-2.3-2.4V91h-2.1v7.2c0,2.1,0.8,4,4.3,4
C407.1,102.3,408.8,100.9,408.8,97.8 M395.8,96.6c0,2.6-1.5,3.8-3.6,3.8c-0.4,0-0.9,0-1.2-0.1v-7.5c0.3,0,0.8,0,1.3,0
C394.9,92.8,395.8,94.2,395.8,96.6 M398.1,96.4c0-3.9-2.2-5.4-5.6-5.4c-1.4,0-2.7,0-3.6,0.1v11.1c0.9,0,1.9,0.1,3.1,0.1
C395.6,102.2,398.1,100.2,398.1,96.4 M383.5,98.7c0-3.5-4.7-2.7-4.7-4.7c0-0.8,0.6-1.3,1.9-1.3c0.7,0,1.4,0.1,2,0.3l0.1-1.9
c-0.7-0.1-1.4-0.2-2-0.2c-2.7,0-4.2,1.4-4.2,3.3c0,3.6,4.6,2.7,4.6,4.8c0,1-0.8,1.5-1.9,1.5c-0.8,0-1.7-0.2-2.3-0.4l-0.1,2
c0.7,0.2,1.5,0.3,2.3,0.3C381.9,102.3,383.5,100.8,383.5,98.7 M375.9,92.9V91H368v1.8h2.9v9.3h2.1v-9.3H375.9z M365,94.3
c0,1-0.8,1.7-2.1,1.7c-0.3,0-0.6,0-0.8,0v-3.2c0.2,0,0.5,0,0.8,0C364.3,92.7,365,93.2,365,94.3 M368,102.1l-2.7-3.7
c-0.3-0.4-0.6-0.8-0.9-1.2c1.7-0.3,2.8-1.4,2.8-3.1c0-2.3-1.6-3.1-4-3.1c-1.3,0-2.3,0-3.2,0.1v11.1h2.1v-4.6h0.1l3.1,4.6H368z
M356,96.6c0,2.7-1.5,3.8-3,3.8c-2,0-2.9-1.5-2.9-3.9c0-2.5,1.4-3.7,2.9-3.7C355,92.8,356,94.1,356,96.6 M358.3,96.4
c0-3.8-2.1-5.6-5-5.6c-3,0-5.4,2.2-5.4,5.9c0,3.4,1.7,5.6,5,5.6C355.9,102.3,358.3,100.1,358.3,96.4 M344.8,94.5
c0,1.2-0.9,1.9-2.2,1.9c-0.2,0-0.4,0-0.6,0v-3.7c0.2,0,0.5,0,0.8,0C344.1,92.7,344.8,93.4,344.8,94.5 M347,94.4
c0-2.2-1.5-3.4-4.2-3.4c-1.1,0-2.1,0-3,0.1v11.1h2.1v-3.9c0.3,0,0.5,0,0.7,0C345.3,98.3,347,96.6,347,94.4 M338,98.7
c0-3.5-4.7-2.7-4.7-4.7c0-0.8,0.6-1.3,1.9-1.3c0.7,0,1.4,0.1,2,0.3l0.1-1.9c-0.7-0.1-1.4-0.2-2-0.2c-2.7,0-4.2,1.4-4.2,3.3
c0,3.6,4.6,2.7,4.6,4.8c0,1-0.8,1.5-1.9,1.5c-0.8,0-1.7-0.2-2.3-0.4l-0.1,2c0.7,0.2,1.5,0.3,2.3,0.3
C336.3,102.3,338,100.8,338,98.7 M329.2,102.1V91h-2.1v3.5c0,1.4,0,3.3,0.1,4.5c-0.4-0.8-0.9-1.8-1.4-2.6l-3.1-5.3H320v11.1h2.1v-4
c0-1.3,0-3.1-0.1-4c0.3,0.7,0.7,1.5,1.2,2.4l3.3,5.6H329.2z M315.2,98.2h-3.1l1-2.8c0.2-0.6,0.4-1.3,0.5-1.9h0
c0.1,0.6,0.3,1.2,0.5,1.8L315.2,98.2z M318.9,102.1l-4-11.1h-2.4l-3.9,11.1h2.2l0.8-2.3h4.2l0.8,2.3H318.9z M305.3,94.3
c0,1-0.8,1.7-2.1,1.7c-0.3,0-0.6,0-0.8,0v-3.2c0.2,0,0.5,0,0.8,0C304.7,92.7,305.3,93.2,305.3,94.3 M308.3,102.1l-2.7-3.7
c-0.3-0.4-0.6-0.8-0.9-1.2c1.7-0.3,2.8-1.4,2.8-3.1c0-2.3-1.6-3.1-4-3.1c-1.3,0-2.3,0-3.2,0.1v11.1h2.1v-4.6h0.1l3.1,4.6H308.3z
M299.1,92.9V91h-7.9v1.8h2.9v9.3h2.1v-9.3H299.1z M287.3,98.7c0-3.5-4.7-2.7-4.7-4.7c0-0.8,0.6-1.3,1.9-1.3c0.7,0,1.4,0.1,2,0.3
l0.1-1.9c-0.7-0.1-1.4-0.2-2-0.2c-2.7,0-4.2,1.4-4.2,3.3c0,3.6,4.7,2.7,4.7,4.8c0,1-0.8,1.5-1.9,1.5c-0.8,0-1.7-0.2-2.3-0.4l-0.1,2
c0.7,0.2,1.5,0.3,2.3,0.3C285.6,102.3,287.3,100.8,287.3,98.7 M278.8,102.1v-1.8h-3.9v-3h3.7v-1.7h-3.7v-2.7h3.9V91h-6v11.1H278.8z
M268.7,96.6c0,2.6-1.5,3.8-3.6,3.8c-0.4,0-0.9,0-1.2-0.1v-7.5c0.3,0,0.8,0,1.3,0C267.8,92.8,268.7,94.2,268.7,96.6 M271,96.4
c0-3.9-2.2-5.4-5.6-5.4c-1.4,0-2.7,0-3.6,0.1v11.1c0.9,0,1.9,0.1,3.1,0.1C268.5,102.2,271,100.2,271,96.4 M256.8,92.9V91h-7.9v1.8
h2.9v9.3h2.1v-9.3H256.8z M247.8,102.1v-1.8h-3.9v-3h3.7v-1.7h-3.7v-2.7h3.9V91h-6v11.1H247.8z"/> <path d="M415,80.4c0-3.5-4.7-2.7-4.7-4.7c0-0.8,0.6-1.3,1.9-1.3c0.7,0,1.4,0.1,2,0.3l0.1-1.9c-0.7-0.1-1.4-0.2-2-0.2
c-2.7,0-4.2,1.4-4.2,3.3c0,3.6,4.7,2.7,4.7,4.8c0,1-0.8,1.5-1.9,1.5c-0.8,0-1.7-0.2-2.3-0.4l-0.1,2c0.7,0.2,1.5,0.3,2.3,0.3
C413.4,84.1,415,82.5,415,80.4 M406.5,83.9v-1.8h-3.9v-3h3.7v-1.7h-3.7v-2.7h3.9v-1.8h-6v11.1H406.5z M405.8,70.5l-0.9-1.4
l-2.9,1.8l0.7,1.2L405.8,70.5z M399.1,74.6v-1.8h-7.9v1.8h2.9v9.3h2.1v-9.3H399.1z M389.9,72.8h-2.1v11.1h2.1V72.8z M386.4,83.9V82
h-3.6v-9.2h-2.1v11.1H386.4z M378.1,72.8H376v11.1h2.1V72.8z M371.7,80.5c0,1-0.7,1.7-2.1,1.7c-0.5,0-0.9,0-1.2-0.1V79
c0.2,0,0.8,0,0.9,0C370.8,79,371.7,79.4,371.7,80.5 M371.5,75.8c0,1-0.8,1.6-2.2,1.6c-0.3,0-0.6,0-0.9,0v-2.9c0.4,0,0.8,0,1.2,0
C371,74.4,371.5,75,371.5,75.8 M374,80.5c0-1.1-0.7-2.2-2-2.5v0c1.1-0.4,1.8-1.4,1.8-2.5c0-1.8-1.3-2.7-3.7-2.7
c-1.4,0-2.8,0-3.7,0.1v11.1c1.4,0,2.6,0,3.2,0C372.9,83.9,374,82.1,374,80.5 M362.3,78.3c0,2.7-1.5,3.8-3,3.8c-2,0-2.9-1.5-2.9-3.9
c0-2.5,1.4-3.7,2.9-3.7C361.3,74.5,362.3,75.9,362.3,78.3 M364.6,78.2c0-3.8-2.1-5.6-5-5.6c-3,0-5.4,2.2-5.4,5.9
c0,3.4,1.7,5.6,5,5.6C362.2,84.1,364.6,81.8,364.6,78.2 M353.2,83.9l-1.7-11.1H349l-1.9,5.7c-0.3,0.8-0.5,1.4-0.6,2.3h0
c-0.1-0.8-0.3-1.5-0.6-2.3l-1.9-5.7h-2.5l-1.7,11.1h2.2l0.6-5.1c0.1-1,0.2-1.8,0.3-2.8h0c0.1,0.9,0.4,1.9,0.7,2.8l1.7,5.1h2.1
l1.8-5.6c0.3-0.9,0.5-1.7,0.6-2.4h0c0.1,0.8,0.2,1.6,0.3,2.6l0.8,5.3H353.2z M334.9,80.4c0-3.5-4.7-2.7-4.7-4.7
c0-0.8,0.6-1.3,1.9-1.3c0.7,0,1.4,0.1,2,0.3l0.1-1.9c-0.7-0.1-1.4-0.2-2-0.2c-2.7,0-4.2,1.4-4.2,3.3c0,3.6,4.7,2.7,4.7,4.8
c0,1-0.8,1.5-1.9,1.5c-0.8,0-1.7-0.2-2.3-0.4l-0.1,2c0.7,0.2,1.5,0.3,2.3,0.3C333.3,84.1,334.9,82.5,334.9,80.4 M326.4,83.9v-1.8
h-3.9v-3h3.7v-1.7h-3.7v-2.7h3.9v-1.8h-6v11.1H326.4z M316.3,78.3c0,2.6-1.5,3.8-3.6,3.8c-0.4,0-0.9,0-1.2-0.1v-7.5
c0.3,0,0.8,0,1.3,0C315.4,74.5,316.3,75.9,316.3,78.3 M318.6,78.1c0-3.9-2.2-5.4-5.6-5.4c-1.4,0-2.7,0.1-3.6,0.1v11.1
c0.9,0,1.9,0.1,3.1,0.1C316.1,83.9,318.6,82,318.6,78.1 M304.5,74.6v-1.8h-7.9v1.8h2.9v9.3h2.1v-9.3H304.5z M295.4,79.6v-6.8h-2.1
v6.9c0,1.9-0.7,2.6-2.3,2.6c-1.8,0-2.3-1-2.3-2.4v-7.1h-2.1V80c0,2.1,0.8,4,4.3,4C293.7,84.1,295.4,82.6,295.4,79.6 M285.2,74.6
v-1.8h-7.9v1.8h2.9v9.3h2.1v-9.3H285.2z M276,72.8h-2.1v11.1h2.1V72.8z M272.7,74.6v-1.8h-7.9v1.8h2.9v9.3h2.1v-9.3H272.7z
M264.4,80.4c0-3.5-4.7-2.7-4.7-4.7c0-0.8,0.6-1.3,1.9-1.3c0.7,0,1.4,0.1,2,0.3l0.1-1.9c-0.7-0.1-1.4-0.2-2-0.2
c-2.7,0-4.2,1.4-4.2,3.3c0,3.6,4.7,2.7,4.7,4.8c0,1-0.8,1.5-1.9,1.5c-0.8,0-1.7-0.2-2.3-0.4l-0.1,2c0.7,0.2,1.5,0.3,2.3,0.3
C262.7,84.1,264.4,82.5,264.4,80.4 M255.7,83.9V72.8h-2.1v3.5c0,1.4,0,3.3,0.1,4.5c-0.4-0.8-0.9-1.8-1.4-2.6l-3.1-5.3h-2.8v11.1
h2.1v-4c0-1.3,0-3.1-0.1-4c0.3,0.7,0.7,1.5,1.2,2.4l3.3,5.6H255.7z M243.9,72.8h-2.1v11.1h2.1V72.8z"/> <polygon class="st0-logc" points="346.8,22.9 346.8,14.1 315.2,14.1 315.2,22.9 325.9,22.9 325.9,58.7 336.1,58.7 336.1,22.9 	"/> <path class="st0-logc" d="M315.4,58.7l-7.1-44.6h-11.6l-6.3,19.5c-1.1,3.4-1.8,6.2-2.5,9.8h-0.1c-0.7-3.5-1.4-6.6-2.4-9.7l-6.2-19.6
h-11.8l-7.1,44.6h10.4l2.2-17.4c0.5-3.7,0.9-7.1,1.3-11.3h0.1c0.6,4,1.7,8.3,2.9,12.1l5.3,16.6h9.9l5.5-18.2
c1.1-3.8,1.9-7.2,2.6-10.5h0.1c0.3,3.4,0.7,6.7,1.3,10.4l2.8,18.4H315.4z"/> <rect y="0" class="st1-logc" width="462.2" height="111.2"/> <rect x="244.5" y="14.1" class="st2-logc" width="10.3" height="44.6"/> <path class="st2-logc" d="M93,14.4L93,14.4C83.1,5.5,70,0,55.6,0C24.9,0,0,24.9,0,55.6c0,30.7,24.9,55.6,55.6,55.6
c14,0,26.8-5.2,36.6-13.8v0l47.3-41.9L93,14.4z"/> <path class="st3-logc" d="M71,40.8c-3.9-4-9.3-6.5-15.4-6.5c-11.8,0-21.3,9.6-21.3,21.3c0,11.8,9.6,21.3,21.3,21.3
c5.7,0,10.9-2.2,14.7-5.9l17.5-15.4L71,40.8z"/> <path class="st4-logc" d="M227.2,55.6c0-30.7-24.9-55.6-55.6-55.6c-14.6,0-27.8,5.6-37.8,14.8L87.8,55.6l46,40.7
c9.9,9.3,23.2,14.9,37.9,14.9C202.3,111.2,227.2,86.3,227.2,55.6"/> <path class="st3-logc" d="M193,55.6c0-11.8-9.6-21.3-21.3-21.3c-6,0-11.3,2.4-15.2,6.4l-16.9,15l17,15c3.9,3.9,9.2,6.3,15.2,6.3
C183.4,76.9,193,67.4,193,55.6"/> <polygon class="st0-logc" points="87.8,55.6 113.6,78.5 139.5,55.6 113.6,32.7 	"/> <path xmlns="http://www.w3.org/2000/svg" class="st4-logc" d="M377.8,36.3c0,9.5-5.3,13.9-12.4,13.9c-1.6,0-3-0.1-3.8-0.3V22.6c1.1-0.1,2.5-0.1,4.2-0.1  C375.1,22.5,377.8,27.9,377.8,36.3 M388.9,35.5c0-15.9-8.9-21.7-22.3-21.7c-6,0-11.7,0.2-15.2,0.4v44.4c4.1,0.2,8.5,0.4,13.2,0.4  C379.1,59,388.9,50.8,388.9,35.5"/> </g> </svg>