<?xml version="1.0" encoding="utf-8"?>
<!-- Generator: Adobe Illustrator 24.1.1, SVG Export Plug-In . SVG Version: 6.00 Build 0)  -->
<svg version="1.1" id="Calque_1" xmlns="http://www.w3.org/2000/svg" xmlns:xlink="http://www.w3.org/1999/xlink" x="0px" y="0px"
	 viewBox="0 0 324.2 468.7" style="enable-background:new 0 0 324.2 468.7;" xml:space="preserve">
<style type="text/css">
	.st0{fill:#B21919;}
	.st1{fill:#FFFFFF;}
</style>
<path class="st0" d="M319.1,122.1c-9.5-37.4-32.1-70.1-64-92.6c-27.2-19.2-60.6-29.6-93.9-29.4c-3.7,0-8.4,0.2-10.6,0.4
	C129,2.2,109.9,7.4,90.9,16.7C34,44.5-1.7,103.5,0.2,166.6c0.7,23.6,5.9,45.1,15.9,65.6c4.3,8.8,7.1,13.8,12.9,22.5
	c2.5,3.7,33.4,53.5,68.7,110.4c35.3,57,64.3,103.6,64.4,103.6c0.2,0,29.2-46.6,64.4-103.6c35.3-57,66.2-106.7,68.7-110.4
	c5.8-8.7,8.7-13.7,12.9-22.5C324.7,198.3,328.5,159.2,319.1,122.1z M168.9,206.3c-3.1,0.4-10.4,0.4-13.5,0
	c-23.5-2.9-42.7-19.7-48.5-42.5c-3.9-15-1.4-31.3,6.7-44.4c9.1-14.6,23.7-24.1,41.2-26.6c3.6-0.5,13.2-0.4,16.8,0.3
	c12.1,2.2,22.4,7.5,30.8,15.8c21.2,20.9,22.7,54.5,3.6,77.4C196.7,197.3,183.4,204.5,168.9,206.3z"/>
<path class="st1" d="M205.9,186.2c-9.2,11.1-22.5,18.3-37,20c-3.1,0.4-10.4,0.4-13.5,0c-23.5-2.9-42.7-19.7-48.5-42.5
	c-3.9-15-1.4-31.3,6.7-44.4c9.1-14.6,23.7-24.1,41.2-26.6c3.6-0.5,13.2-0.4,16.8,0.3c12.1,2.2,22.4,7.5,30.8,15.8
	C223.5,129.8,225,163.4,205.9,186.2z"/>
</svg>
